/* XPM */
static char * C:\Users\Robin\Desktop\perso\maximizeI_xpm[] = {
"20 40 22 1",
" 	c None",
".	c #CB9B12",
"+	c #C89912",
"@	c #6B5217",
"#	c #C39611",
"$	c #715716",
"%	c #BD9211",
"&	c #755B16",
"*	c #B88D12",
"=	c #7C5E17",
"-	c #000000",
";	c #B28912",
">	c #806415",
",	c #AD8513",
"'	c #866714",
")	c #A88013",
"!	c #8C6C15",
"~	c #A17D13",
"{	c #917015",
"]	c #9C7813",
"^	c #977414",
"/	c #654F17",
"....................",
"++@@@@@@@@@@@@@@@@++",
"#$$$$$$$$$$$$$$$$$$#",
"%&&%%%%%%%%%%%%%%&&%",
"*==*------------*==*",
";>>;------------;>>;",
",'',-,,,,,,,,,,-,'',",
")!!)-))))))))))-)!!)",
"~{{~-~~~~~~~~~~-~{{~",
"]^^]-]]]]]]]]]]-]^^]",
"^]]^-^^^^^^^^^^-^]]^",
"{~~{-{{{{{{{{{{-{~~{",
"!))!-!!!!!!!!!!-!))!",
"',,'-''''''''''-',,'",
">;;>->>>>>>>>>>->;;>",
"=**=------------=**=",
"&%%&&&&&&&&&&&&&&%%&",
"$##################$",
"@@++++++++++++++++@@",
"////////////////////",
"....................",
"++@@@@@@@@@@@@@@@@++",
"#$$$$$$$$$$$$$$$$$$#",
"%&&>>>>>>>>>>>>>>&&%",
"*==>------------>==*",
";>>>------------>>>;",
",''>->>>>>>>>>>->'',",
")!!>->>>>>>>>>>->!!)",
"~{{>->>>>>>>>>>->{{~",
"]^^>->>>>>>>>>>->^^]",
"^]]>->>>>>>>>>>->]]^",
"{~~>->>>>>>>>>>->~~{",
"!))>->>>>>>>>>>->))!",
"',,>->>>>>>>>>>->,,'",
">;;>->>>>>>>>>>->;;>",
"=**>------------>**=",
"&%%>>>>>>>>>>>>>>%%&",
"$##################$",
"@@++++++++++++++++@@",
"////////////////////"};
