/* XPM */
static char * C:\Users\Robin\Desktop\perso\menuButtonO_xpm[] = {
"20 40 21 1",
" 	c None",
".	c #F5ECD4",
"+	c #F4EBCF",
"@	c #F3E7C8",
"#	c #F1E5C1",
"$	c #EFE1B8",
"%	c #EDDEB0",
"&	c #EBDBA9",
"*	c #EAD7A1",
"=	c #E8D399",
"-	c #E7D090",
";	c #E4CD87",
">	c #E3C980",
",	c #E0C576",
"'	c #DFC36F",
")	c #DEBF67",
"!	c #DBBB5E",
"~	c #DAB857",
"{	c #D8B54F",
"]	c #D5B144",
"^	c #D4AE3E",
"....................",
"++++++++++++++++++++",
"@@@@@@@@@@@@@@@@@@@@",
"####################",
"$$$$$$$$$$$$$$$$$$$$",
"%%%%%%%%%%%%%%%%%%%%",
"&&&&&&&&&&&&&&&&&&&&",
"********************",
"====================",
"--------------------",
";;;;;;;;;;;;;;;;;;;;",
">>>>>>>>>>>>>>>>>>>>",
",,,,,,,,,,,,,,,,,,,,",
"''''''''''''''''''''",
"))))))))))))))))))))",
"!!!!!!!!!!!!!!!!!!!!",
"~~~~~~~~~~~~~~~~~~~~",
"{{{{{{{{{{{{{{{{{{{{",
"]]]]]]]]]]]]]]]]]]]]",
"^^^^^^^^^^^^^^^^^^^^",
"....................",
"++++++++++++++++++++",
"@@~~~~~~~~~~~~~~~~@@",
"##~~~~~~~~~~~~~~~~##",
"$$~~~~~~~~~~~~~~~~$$",
"%%~~~~~~~~~~~~~~~~%%",
"&&~~~~~~~~~~~~~~~~&&",
"**~~~~~~~~~~~~~~~~**",
"==~~~~~~~~~~~~~~~~==",
"--~~~~~~~~~~~~~~~~--",
";;~~~~~~~~~~~~~~~~;;",
">>~~~~~~~~~~~~~~~~>>",
",,~~~~~~~~~~~~~~~~,,",
"''~~~~~~~~~~~~~~~~''",
"))~~~~~~~~~~~~~~~~))",
"!!~~~~~~~~~~~~~~~~!!",
"~~~~~~~~~~~~~~~~~~~~",
"{{~~~~~~~~~~~~~~~~{{",
"]]]]]]]]]]]]]]]]]]]]",
"^^^^^^^^^^^^^^^^^^^^"};
