/* XPM */
static char * C:\Users\Robin\Desktop\perso\restoreO_xpm[] = {
"20 40 39 1",
" 	c None",
".	c #F3E8CA",
"+	c #F2E6C4",
"@	c #D5B144",
"#	c #F0E2BB",
"$	c #D8B54F",
"%	c #EEDFB2",
"&	c #DAB857",
"*	c #F1E5C1",
"=	c #EBDAA7",
"-	c #DBBB5E",
";	c #EFE1B8",
">	c #E9D69D",
",	c #DEBF67",
"'	c #EDDEB0",
")	c #000000",
"!	c #E7D294",
"~	c #DFC36F",
"{	c #EBDBA9",
"]	c #E5CE8A",
"^	c #E0C576",
"/	c #EAD7A1",
"(	c #E3C980",
"_	c #E8D399",
":	c #E1C575",
"<	c #E4CD87",
"[	c #E7D090",
"}	c #DEC16A",
"|	c #DCBC61",
"1	c #D9B754",
"2	c #D8B44B",
"3	c #D6AF41",
"4	c #D3AB36",
"5	c #D1A72D",
"6	c #CFA324",
"7	c #F3E7C8",
"8	c #CB9E16",
"9	c #F4EBCF",
"0	c #CA9A0E",
"....................",
"++@@@@@@@@@@@@@@@@++",
"#$$$$$$$$$$$$$$$$$$#",
"%&&**************&&%",
"=--;;;;;;;;;;;;;;--=",
">,,''''')))))))'',,>",
"!~~{{{{{))))))){{~~!",
"]^^/////)/////)//^^]",
"(((_____)_____)__(((",
":<<[[)))))))[[)[[<<:",
"}[[<<))))))))))<<[[}",
"|__(()((((()(((((__|",
"1//^^)^^^^^)^^^^^//1",
"2{{~~)~~~~~)~~~~~{{2",
"3'',,))))))),,,,,''3",
"4;;--------------;;4",
"5**&&&&&&&&&&&&&&**5",
"67777777777777777776",
"88999999999999999988",
"00000000000000000000",
"....................",
"++@@@@@@@@@@@@@@@@++",
"#$$$$$$$$$$$$$$$$$$#",
"%&&&&&&&&&&&&&&&&&&%",
"=--&&&&&&&&&&&&&&--=",
">,,&&&&&)))))))&&,,>",
"!~~&&&&&)))))))&&~~!",
"]^^&&&&&)&&&&&)&&^^]",
"(((&&&&&)&&&&&)&&(((",
":<<&&)))))))&&)&&<<:",
"}[[&&))))))))))&&[[}",
"|__&&)&&&&&)&&&&&__|",
"1//&&)&&&&&)&&&&&//1",
"2{{&&)&&&&&)&&&&&{{2",
"3''&&)))))))&&&&&''3",
"4;;&&&&&&&&&&&&&&;;4",
"5**&&&&&&&&&&&&&&**5",
"67777777777777777776",
"88999999999999999988",
"00000000000000000000"};
