/* XPM */
static char * C:\Users\Robin\Desktop\perso\restoreA_xpm[] = {
"20 40 22 1",
" 	c None",
".	c #F3E8CA",
"+	c #F2E6C4",
"@	c #CB9E16",
"#	c #F0E2BB",
"$	c #CFA324",
"%	c #EEDFB2",
"&	c #D1A72D",
"*	c #EBDAA7",
"=	c #D3AB36",
"-	c #E9D69D",
";	c #D6AF41",
">	c #000000",
",	c #E7D294",
"'	c #D8B44B",
")	c #E5CE8A",
"!	c #D9B754",
"~	c #E3C980",
"{	c #DCBC61",
"]	c #E1C575",
"^	c #DEC16A",
"/	c #CA9A0E",
"....................",
"++@@@@@@@@@@@@@@@@++",
"#$$$$$$$$$$$$$$$$$$#",
"%&&%%%%%%%%%%%%%%&&%",
"*==**************==*",
"-;;----->>>>>>>--;;-",
",'',,,,,>>>>>>>,,'',",
")!!)))))>)))))>))!!)",
"~{{~~~~~>~~~~~>~~{{~",
"]^^]]>>>>>>>]]>]]^^]",
"^]]^^>>>>>>>>>>^^]]^",
"{~~{{>{{{{{>{{{{{~~{",
"!))!!>!!!!!>!!!!!))!",
"',,''>'''''>''''',,'",
";--;;>>>>>>>;;;;;--;",
"=**==============**=",
"&%%&&&&&&&&&&&&&&%%&",
"$##################$",
"@@++++++++++++++++@@",
"////////////////////",
"....................",
"++@@@@@@@@@@@@@@@@++",
"#$$$$$$$$$$$$$$$$$$#",
"%&&&&&&&&&&&&&&&&&&%",
"*==&&&&&&&&&&&&&&==*",
"-;;&&&&&>>>>>>>&&;;-",
",''&&&&&>>>>>>>&&'',",
")!!&&&&&>&&&&&>&&!!)",
"~{{&&&&&>&&&&&>&&{{~",
"]^^&&>>>>>>>&&>&&^^]",
"^]]&&>>>>>>>>>>&&]]^",
"{~~&&>&&&&&>&&&&&~~{",
"!))&&>&&&&&>&&&&&))!",
"',,&&>&&&&&>&&&&&,,'",
";--&&>>>>>>>&&&&&--;",
"=**&&&&&&&&&&&&&&**=",
"&%%&&&&&&&&&&&&&&%%&",
"$##################$",
"@@++++++++++++++++@@",
"////////////////////"};
