/* XPM */
static char * C:\Users\Robin\Desktop\linux_xpm[] = {
"60 20 75 1",
" 	c #BD8B00",
".	c #C69403",
"+	c #D2A00F",
"@	c #E0AE1D",
"#	c #C08E00",
"$	c #D5A312",
"%	c #D9A716",
"&	c #E7B524",
"*	c #AE7C00",
"=	c #E1AF1E",
"-	c #C59302",
";	c #C89605",
">	c #BE8C00",
",	c #BB8900",
"'	c #CA9807",
")	c #B78500",
"!	c #C29000",
"~	c #CE9C0B",
"{	c #C39100",
"]	c #D7A514",
"^	c #C99706",
"/	c #CF9D0C",
"(	c #D3A110",
"_	c #C49201",
":	c #AC7A00",
"<	c #CB9908",
"[	c #D4A211",
"}	c #B88600",
"|	c #000000",
"1	c #BC8A00",
"2	c #DBA918",
"3	c #CD9B0A",
"4	c #AB7900",
"5	c #B58300",
"6	c #D6A413",
"7	c #D8A615",
"8	c #CC9A09",
"9	c #B48200",
"0	c #E3B120",
"a	c #DDAB1A",
"b	c #DAA817",
"c	c #D09E0D",
"d	c #545454",
"e	c #FFFFFF",
"f	c #8E8E8E",
"g	c #C18F00",
"h	c #E4B221",
"i	c #D19F0E",
"j	c #BA8800",
"k	c #BF8D00",
"l	c #C79504",
"m	c #B98700",
"n	c #DEAC1B",
"o	c #B68400",
"p	c #B38100",
"q	c #DFAD1C",
"r	c #EAB827",
"s	c #E9B726",
"t	c #B17F00",
"u	c #DCAA19",
"v	c #EBB928",
"w	c #B07E00",
"x	c #E6B423",
"y	c #A87600",
"z	c #E8B625",
"A	c #E5B322",
"B	c #B28000",
"C	c #A77500",
"D	c #EDBB2A",
"E	c #A47200",
"F	c #AF7D00",
"G	c #A16F00",
"H	c #9B4D00",
"I	c #AD7B00",
"J	c #AA7800",
" .+@ #$%%&*=-;>,'))!~{]^/((]_:.<)[}{/||||||!!-%[~+12~^][$3{[",
"456[</[>,!+<7+ '^8+3+90([*<a-bc;'5|||deefdd||ghi icg<](/;>b5",
"[j5.'kakkl3';1/k~].m; ^#km_$.7i+'|efdfeefddd|(/_#+lj6i''8c)_",
"b/$b+$!n.mo<^pk^@#8.<_#9]^i,a#3lq|eddeeedddee|~{>_rs/-~t.~]>",
"u1$#5#/t'b_^vl/1qqp_%$;{w~>>q++;,|eddeeedddee|j;-k..'/l_7 -,",
"cc@j72,.,.(6u^c-@!-3-k8l82)a6tx+ |eddeeeddee|^ki6m>i.i{!{wik",
"q-(y]3'lpc<.3'a{>_k~m}[1g]}.-^[~]|e|deeed|ee|l96<>;~v1./qla!",
"6jg<,bk]j+!~>%)%3zp^7#A2l.[(l!8o8|e|deeed|ee|p^~~i;.h)[{-B%7",
"(C~[__pq]./$[~ [@#t<i .D6>1).'E%1|e|deeed|e|<pm<{%'g/c$/,l^c",
";(k'llgk;<z1%:8c':j%w6]^5#u%k1<(1|fddeeedee|!^%c~i>!-j'g]'/+",
"7+>]#.+lw''F;g6^!![k!!G#7-o_]l#m'g|deeeedf|5,[#,_[~l{(>{6k~2",
"i||||^a'7g,cvng'. 1.3;u(]oj wx<'a-3|HHHef|(n!~1-k*u!~ojl^g<{",
"8|j/!|)#klog~0.k8a;>||l>;+~_{3m/'l(/|H|||'-||(3l||~|~(>9.8<<",
"6|)g3| C$<.>qnm]m{1|]_+^(* 79'u}k-+<#|og^_|((5{|8$3|w$-i#>[~",
"7||||gj|||o;|<kk|i||||.$||||;5|||^;|cq{|.||||[||||3|8$>|||>;",
"0|c8+@|_i |.|Fko|c]|co1|#^%o3|mp.|#|(9-|.6|^'53|7k{|))|]c[|;",
"o|#[${|-<{|{|~9I|][|.3k2|||,l|!'7|;|-m-|_'|%187|;}l|li|||||i",
"w|7scw|lJ*|3|7+l|.o|#nj2%:(|_|/81|g|}~'|+~|l3.B|~'#|$^|o)+~8",
"~|cli#.|||%!i||||i/|k87||||.,c|||./q||||m6|at.F|+g-]|!(||||o",
"ti0'c={17..(8}k5lj/ii/ c#-3bq,b(m{:=<+j!9x~6k1(i~-<+#{$g(}j'"};
